<svg xmlns="http://www.w3.org/2000/svg" viewBox="0 0 200 120" width="100%" height="100%">
    <!-- Buildings backgrounds -->
    <rect x="20" y="40" width="30" height="80" fill="#bfdbfe" rx="2" opacity="0.6"/>
    <rect x="60" y="20" width="40" height="100" fill="#93c5fd" rx="3" opacity="0.7"/>
    <rect x="110" y="50" width="35" height="70" fill="#bfdbfe" rx="2" opacity="0.6"/>
    <rect x="150" y="30" width="30" height="90" fill="#93c5fd" rx="2" opacity="0.5"/>
    
    <!-- Foregrounds -->
    <rect x="35" y="60" width="35" height="60" fill="#3b82f6" rx="2"/>
    <rect x="80" y="40" width="45" height="80" fill="#2563eb" rx="3"/>
    <rect x="135" y="70" width="30" height="50" fill="#1d4ed8" rx="2"/>
    
    <!-- Windows -->
    <rect x="45" y="70" width="6" height="8" fill="#eff6ff" rx="1"/>
    <rect x="55" y="70" width="6" height="8" fill="#eff6ff" rx="1"/>
    <rect x="45" y="85" width="6" height="8" fill="#eff6ff" rx="1"/>
    <rect x="55" y="85" width="6" height="8" fill="#eff6ff" rx="1"/>
    <rect x="45" y="100" width="6" height="8" fill="#eff6ff" rx="1"/>
    <rect x="55" y="100" width="6" height="8" fill="#eff6ff" rx="1"/>

    <rect x="90" y="52" width="8" height="10" fill="#dbeafe" rx="1"/>
    <rect x="105" y="52" width="8" height="10" fill="#dbeafe" rx="1"/>
    <rect x="90" y="68" width="8" height="10" fill="#dbeafe" rx="1"/>
    <rect x="105" y="68" width="8" height="10" fill="#dbeafe" rx="1"/>
    <rect x="90" y="84" width="8" height="10" fill="#dbeafe" rx="1"/>
    <rect x="105" y="84" width="8" height="10" fill="#dbeafe" rx="1"/>
    <rect x="90" y="100" width="8" height="10" fill="#dbeafe" rx="1"/>
    <rect x="105" y="100" width="8" height="10" fill="#dbeafe" rx="1"/>

    <rect x="143" y="80" width="5" height="7" fill="#eff6ff" rx="1"/>
    <rect x="153" y="80" width="5" height="7" fill="#eff6ff" rx="1"/>
    <rect x="143" y="93" width="5" height="7" fill="#eff6ff" rx="1"/>
    <rect x="153" y="93" width="5" height="7" fill="#eff6ff" rx="1"/>
    <rect x="143" y="106" width="5" height="7" fill="#eff6ff" rx="1"/>
    <rect x="153" y="106" width="5" height="7" fill="#eff6ff" rx="1"/>
</svg>
